<svg width="10" height="37" viewBox="0 0 10 37" fill="none" xmlns="http://www.w3.org/2000/svg">
<path d="M10 0.5C7.5 0.500023 9 0.500021 8 0.5C7 0.499979 5.5 1 5.5 3C5.5 3.5 5.5 4.41421 5.5 5" stroke="black"/>
<path d="M10 36.5C7.5 36.5 9 36.5 8 36.5C7 36.5 5.5 36 5.5 34C5.5 33.5 5.5 32.5858 5.5 32" stroke="black"/>
<path d="M5.5 29V31" stroke="black"/>
<path d="M5.5 9C5.5 9 5.5 14 5.5 16.5C5.5 18.5103 1 19 1 19C1 19 5.5 19.0769 5.5 21C5.5 23 5.5 28 5.5 28" stroke="black"/>
<path d="M5.5 8V6" stroke="black"/>
</svg>
